<svg xmlns="http://www.w3.org/2000/svg" viewBox="0 0 1440 320"><path fill="#273036" fill-opacity="0.7" d="M0,96L21.8,85.3C43.6,75,87,53,131,53.3C174.5,53,218,75,262,80C305.5,85,349,75,393,101.3C436.4,128,480,192,524,197.3C567.3,203,611,149,655,144C698.2,139,742,181,785,208C829.1,235,873,245,916,224C960,203,1004,149,1047,122.7C1090.9,96,1135,96,1178,106.7C1221.8,117,1265,139,1309,149.3C1352.7,160,1396,160,1418,160L1440,160L1440,320L1418.2,320C1396.4,320,1353,320,1309,320C1265.5,320,1222,320,1178,320C1134.5,320,1091,320,1047,320C1003.6,320,960,320,916,320C872.7,320,829,320,785,320C741.8,320,698,320,655,320C610.9,320,567,320,524,320C480,320,436,320,393,320C349.1,320,305,320,262,320C218.2,320,175,320,131,320C87.3,320,44,320,22,320L0,320Z"></path></svg>